<svg width="1920" height="2881" viewBox="0 0 1920 2881" fill="none" xmlns="http://www.w3.org/2000/svg">
<path d="M1920 1260.13L1891 1268.06C1862 1276.43 1804 1292.3 1745.6 1259.24C1687.4 1226.19 1628.6 1144.22 1570.4 1133.2C1512 1122.18 1454 1182.12 1396 1203.71C1338 1224.87 1280 1207.24 1222 1215.17C1164 1223.55 1106 1257.04 1047.6 1266.74C989.4 1276.43 930.6 1261.45 872.4 1225.75C814 1189.61 756 1132.32 698 1116.89C640 1101.47 582 1127.91 524 1157.88C466 1188.29 408 1221.78 349.6 1221.34C291.4 1220.46 232.6 1185.2 174.4 1185.2C116 1185.2 58 1220.46 29 1238.09L0 1255.72L0 272.916H29C58 272.916 116 272.916 174.4 272.916C232.6 272.916 291.4 272.916 349.6 272.916C408 272.916 466 272.916 524 272.916C582 272.916 640 272.916 698 272.916C756 272.916 814 272.916 872.4 272.916C930.6 272.916 989.4 272.916 1047.6 272.916C1106 272.916 1164 272.916 1222 272.916C1280 272.916 1338 272.916 1396 272.916C1454 272.916 1512 272.916 1570.4 272.916C1628.6 272.916 1687.4 272.916 1745.6 272.916C1804 272.916 1862 272.916 1891 272.916H1920L1920 1260.13Z" fill="#6600FF"/>
<path d="M1920 892.109L1891 904.318C1862 915.971 1804 940.388 1745.6 963.14C1687.4 986.446 1628.6 1008.64 1570.4 988.111C1512 968.134 1454 904.873 1396 912.642C1338 919.856 1280 997.545 1222 1054.7C1164 1112.41 1106 1149.04 1047.6 1114.08C989.4 1079.12 930.6 971.464 872.4 940.943C814 910.422 756 957.035 698 999.21C640 1041.94 582 1080.78 524 1058.59C466 1036.39 408 953.151 349.6 922.63C291.4 892.109 232.6 914.306 174.4 958.7C116 1003.09 58.0001 1069.69 29.0001 1102.98L6.07967e-05 1136.28L6.07967e-05 265.044H29.0001C58.0001 265.044 116 265.044 174.4 265.044C232.6 265.044 291.4 265.044 349.6 265.044C408 265.044 466 265.044 524 265.044C582 265.044 640 265.044 698 265.044C756 265.044 814 265.044 872.4 265.044C930.6 265.044 989.4 265.044 1047.6 265.044C1106 265.044 1164 265.044 1222 265.044C1280 265.044 1338 265.044 1396 265.044C1454 265.044 1512 265.044 1570.4 265.044C1628.6 265.044 1687.4 265.044 1745.6 265.044C1804 265.044 1862 265.044 1891 265.044H1920L1920 892.109Z" fill="url(#paint0_linear_388_20)"/>
<path d="M1920 400.805L1891 422.125C1862 443.444 1758.5 494.004 1721 510.405C1664 535.335 1640.16 608.635 1581.96 584.757C1523.56 560.027 1461.05 502.286 1403.05 503.139C1345.05 504.844 1280 531.183 1222 597.7C1164 665.069 1106 693.308 1047.6 695.014C989.4 696.719 930.6 608.03 872.4 612.294C814 616.558 756 713.775 698 741.917C640 770.058 582 730.831 524 716.333C466 701.836 408 713.775 349.6 693.308C291.4 673.694 232.6 622.528 174.4 567.097C116 511.667 58 451.972 29 422.125L0 392.278V-0.000704527H29C58 -0.000704527 116 -0.000704527 174.4 -0.000704527C232.6 -0.000704527 291.4 -0.000704527 349.6 -0.000704527C408 -0.000704527 466 -0.000704527 524 -0.000704527C582 -0.000704527 640 -0.000704527 698 -0.000704527C756 -0.000704527 814 -0.000704527 872.4 -0.000704527C930.6 -0.000704527 989.4 -0.000704527 1047.6 -0.000704527C1106 -0.000704527 1164 -0.000704527 1222 -0.000704527C1280 -0.000704527 1338 -0.000704527 1396 -0.000704527C1454 -0.000704527 1512 -0.000704527 1570.4 -0.000704527C1628.6 -0.000704527 1687.4 -0.000704527 1745.6 -0.000704527C1804 -0.000704527 1862 -0.000704527 1891 -0.000704527H1920V400.805Z" fill="url(#paint1_linear_388_20)"/>
<rect y="1048" width="1920" height="1833" fill="#6936FB"/>
<defs>
<linearGradient id="paint0_linear_388_20" x1="960" y1="1136.28" x2="960" y2="265.044" gradientUnits="userSpaceOnUse">
<stop stop-color="#6940FA"/>
<stop offset="1" stop-color="#6940FA" stop-opacity="0"/>
</linearGradient>
<linearGradient id="paint1_linear_388_20" x1="960" y1="751.831" x2="960" y2="-0.000732422" gradientUnits="userSpaceOnUse">
<stop offset="0.0104167" stop-color="#140042"/>
<stop offset="0.494792"/>
</linearGradient>
</defs>
</svg>
