<svg width="162" height="50" viewBox="0 0 162 50" fill="none" xmlns="http://www.w3.org/2000/svg">
<path d="M18.3227 26.9941L0 42.7518L2.25016 42.4302L3.85742 41.9478L4.82178 41.1439L6.42903 40.5007L6.91121 39.8575L8.35774 39.5359L8.83992 38.8928H9.64355L10.1257 37.2848H11.733L13.0188 36.4809L13.3402 35.8377L16.5548 35.1945V35.8377L15.9119 36.4809V38.4104L13.9831 40.5007C13.6406 42.4648 14.2324 42.5711 16.5548 41.1439L17.8406 40.5007L20.0907 38.8928L21.5373 37.2848L23.3052 37.6064L23.1445 36.4809H27.1627V37.2848L29.5736 38.0888L31.5023 39.5359H32.6273L32.9488 40.3399H34.0739L44.6818 49.5051L40.0207 40.9831L38.7349 39.5359V38.0888L37.6098 37.7672L37.1277 35.8377H36.4848L36.324 34.5513L35.5204 34.069L35.6811 32.1395H40.8244V31.6571L41.9494 31.3355L42.2709 30.2099H42.9138V27.4764L45.0032 25.2253H49.9857L50.6286 25.8685L52.8788 27.1549L55.7719 28.9236L57.8613 30.8531L61.2365 32.7826L63.4867 34.8729L65.8976 35.9985L67.987 38.2496L69.9157 39.3751L74.0946 42.1086C75.5514 42.6596 75.9325 42.4539 75.5411 40.8223L73.9339 34.8729L67.6656 25.8685L66.7012 23.7782V21.6879H67.6656L68.4692 19.1152L73.7732 18.9544L74.0946 18.3112L75.8626 17.9897L76.1841 16.8641L78.9164 15.417H80.0415L80.2022 14.4522L83.0953 14.7738L85.9883 18.3112H87.1134L90.8101 22.4919H91.9352L93.8639 24.5822V25.5469L85.3454 33.5866L85.024 34.8729L84.3811 35.0337L84.7025 38.2496L87.2741 38.4104L88.8814 38.732L89.0421 37.4456L93.8639 37.2848L95.7926 35.9985V32.7826L98.3642 30.0491H101.418L101.579 31.1747L112.347 40.3399L105.918 32.3002L117.651 41.6263H126.813C128.042 41.6742 128.381 41.4494 127.777 40.1791L121.509 30.8531L122.152 23.939L127.456 23.6174L128.902 23.135V22.3311L130.349 22.6527L130.509 21.6879L133.242 20.08L136.135 20.2408L159.761 41.4655C161.318 41.7649 161.561 41.2647 161.208 39.5359L135.331 5.76938C133.719 4.24102 132.807 4.07117 131.152 5.93017L113.955 23.7782C112.583 25.131 112.56 25.7326 113.151 26.6725L116.205 30.0491L120.866 37.6064L115.401 31.1747L114.276 30.8531L105.597 21.3663C102.553 18.1411 100.785 18.5163 97.5606 21.6879L95.6319 19.4368L95.1497 18.472L94.5068 17.9897L92.8995 15.7386L92.0959 15.2562L91.9352 13.9698L81.6487 0.945582C80.6788 -0.335628 80.1564 -0.184086 79.2378 0.623995L72.4874 7.05572V8.18128L66.862 13.4874V14.4522L62.6831 18.1504H62.2009L60.1115 20.5623L62.5224 23.135L62.6831 25.2253L67.987 32.7826L62.2009 27.1549L62.0402 26.0293L60.4329 25.8685L53.361 18.472L53.2003 17.5073L52.3966 17.6681L50.7894 16.0601C49.0989 14.391 48.3094 14.3644 47.0927 15.417L43.396 19.7584L42.2709 19.5976L32.6273 29.7276V34.8729L34.7168 38.0888L31.8237 35.1945H30.2165L25.234 30.0491V28.9236H24.1089L23.466 27.6372C21.5158 25.2942 20.3749 25.6814 18.3227 26.9941Z" fill="#E8E8E8"/>
</svg>
